<svg width="24" height="24" viewBox="0 0 24 24" fill="none" xmlns="http://www.w3.org/2000/svg">
<path d="M13.6698 11.826L11.3302 10.7344C11.126 10.6396 10.9583 10.7458 10.9583 10.9719V13.0281C10.9583 13.2542 11.126 13.3604 11.3302 13.2656L13.6688 12.174C13.874 12.0781 13.874 11.9219 13.6698 11.826ZM12 2C6.47708 2 2 6.47708 2 12C2 17.5229 6.47708 22 12 22C17.5229 22 22 17.5229 22 12C22 6.47708 17.5229 2 12 2ZM12 16.0625C6.88125 16.0625 6.79167 15.601 6.79167 12C6.79167 8.39896 6.88125 7.9375 12 7.9375C17.1187 7.9375 17.2083 8.39896 17.2083 12C17.2083 15.601 17.1187 16.0625 12 16.0625Z" fill="#FBFBFB"/>
</svg>
