<svg width="24" height="24" viewBox="0 0 24 24" fill="none" xmlns="http://www.w3.org/2000/svg">
<path d="M15.8846 3H7.11538C5.75915 3.00145 4.45887 3.54086 3.49986 4.49986C2.54086 5.45887 2.00145 6.75915 2 8.11538V16.8846C2.00145 18.2409 2.54086 19.5411 3.49986 20.5001C4.45887 21.4591 5.75915 21.9985 7.11538 22H15.8846C17.2409 21.9985 18.5411 21.4591 19.5001 20.5001C20.4591 19.5411 20.9985 18.2409 21 16.8846V8.11538C20.9985 6.75915 20.4591 5.45887 19.5001 4.49986C18.5411 3.54086 17.2409 3.00145 15.8846 3ZM11.5 16.8846C10.6328 16.8846 9.78508 16.6275 9.06404 16.1457C8.34299 15.6639 7.781 14.9791 7.44914 14.1779C7.11728 13.3767 7.03045 12.4951 7.19963 11.6446C7.36882 10.7941 7.78641 10.0128 8.39961 9.39961C9.01281 8.78641 9.79407 8.36882 10.6446 8.19963C11.4951 8.03045 12.3767 8.11728 13.1779 8.44914C13.9791 8.781 14.6639 9.34299 15.1457 10.064C15.6275 10.7851 15.8846 11.6328 15.8846 12.5C15.8834 13.6625 15.4211 14.777 14.5991 15.5991C13.777 16.4211 12.6625 16.8834 11.5 16.8846ZM16.9808 8.11538C16.764 8.11538 16.552 8.0511 16.3718 7.93065C16.1915 7.8102 16.051 7.63901 15.9681 7.43871C15.8851 7.23841 15.8634 7.01801 15.9057 6.80538C15.948 6.59275 16.0524 6.39743 16.2057 6.24413C16.359 6.09083 16.5543 5.98643 16.7669 5.94414C16.9796 5.90184 17.2 5.92355 17.4002 6.00652C17.6005 6.08948 17.7717 6.22998 17.8922 6.41024C18.0126 6.5905 18.0769 6.80243 18.0769 7.01923C18.0769 7.30995 17.9614 7.58876 17.7559 7.79433C17.5503 7.9999 17.2715 8.11538 16.9808 8.11538ZM14.4231 12.5C14.4231 13.0781 14.2516 13.6433 13.9304 14.124C13.6093 14.6047 13.1527 14.9793 12.6186 15.2006C12.0845 15.4218 11.4968 15.4797 10.9297 15.3669C10.3627 15.2541 9.84187 14.9757 9.43307 14.5669C9.02427 14.1581 8.74588 13.6373 8.63309 13.0703C8.5203 12.5032 8.57819 11.9155 8.79943 11.3814C9.02067 10.8473 9.39533 10.3907 9.87603 10.0696C10.3567 9.74836 10.9219 9.57692 11.5 9.57692C12.2752 9.57692 13.0187 9.88489 13.5669 10.4331C14.1151 10.9813 14.4231 11.7248 14.4231 12.5Z" fill="#FBFBFB"/>
</svg>
