<svg width="19" height="19" viewBox="0 0 19 19" fill="none" xmlns="http://www.w3.org/2000/svg">
<path d="M13.8846 0H5.11538C3.75915 0.00145078 2.45887 0.540858 1.49986 1.49986C0.540858 2.45887 0.00145078 3.75915 0 5.11538V13.8846C0.00145078 15.2409 0.540858 16.5411 1.49986 17.5001C2.45887 18.4591 3.75915 18.9985 5.11538 19H13.8846C15.2409 18.9985 16.5411 18.4591 17.5001 17.5001C18.4591 16.5411 18.9985 15.2409 19 13.8846V5.11538C18.9985 3.75915 18.4591 2.45887 17.5001 1.49986C16.5411 0.540858 15.2409 0.00145078 13.8846 0ZM9.5 13.8846C8.6328 13.8846 7.78508 13.6275 7.06404 13.1457C6.34299 12.6639 5.781 11.9791 5.44914 11.1779C5.11728 10.3767 5.03045 9.49514 5.19963 8.6446C5.36882 7.79407 5.78641 7.01281 6.39961 6.39961C7.01281 5.78641 7.79407 5.36882 8.6446 5.19963C9.49514 5.03045 10.3767 5.11728 11.1779 5.44914C11.9791 5.781 12.6639 6.34299 13.1457 7.06404C13.6275 7.78508 13.8846 8.6328 13.8846 9.5C13.8834 10.6625 13.4211 11.777 12.5991 12.5991C11.777 13.4211 10.6625 13.8834 9.5 13.8846ZM14.9808 5.11538C14.764 5.11538 14.552 5.0511 14.3718 4.93065C14.1915 4.8102 14.051 4.63901 13.9681 4.43871C13.8851 4.23841 13.8634 4.01801 13.9057 3.80538C13.948 3.59275 14.0524 3.39743 14.2057 3.24413C14.359 3.09083 14.5543 2.98643 14.7669 2.94414C14.9796 2.90184 15.2 2.92355 15.4002 3.00652C15.6005 3.08948 15.7717 3.22998 15.8922 3.41024C16.0126 3.5905 16.0769 3.80243 16.0769 4.01923C16.0769 4.30995 15.9614 4.58876 15.7559 4.79433C15.5503 4.9999 15.2715 5.11538 14.9808 5.11538ZM12.4231 9.5C12.4231 10.0781 12.2516 10.6433 11.9304 11.124C11.6093 11.6047 11.1527 11.9793 10.6186 12.2006C10.0845 12.4218 9.49676 12.4797 8.92974 12.3669C8.36271 12.2541 7.84187 11.9757 7.43307 11.5669C7.02427 11.1581 6.74588 10.6373 6.63309 10.0703C6.5203 9.50324 6.57819 8.91551 6.79943 8.38139C7.02067 7.84726 7.39533 7.39074 7.87603 7.06955C8.35672 6.74836 8.92187 6.57692 9.5 6.57692C10.2752 6.57692 11.0187 6.88489 11.5669 7.43307C12.1151 7.98126 12.4231 8.72475 12.4231 9.5Z" fill="#FBFBFB"/>
</svg>
